# xmcd
#
# Track frame offsets:
#	150
#	18052
#	33760
#	45320
#	67120
#	80572
#	93562
#	109905
#	126835
#	138100
#	153452
#	165575
#	178250
#	190032
#	203477
#
# Disc length: 2850 seconds
#
# Revision: 0
# Processed by: cddbd v1.5.2PL0 Copyright (c) Steve Scherf et al.
# Submitted via: EasyCDDAExtractor 16.0.9.1
#
DISCID=bc0b200f
DTITLE=Varios - N-059 Absolute Soul
DYEAR=1900
DGENRE=Soul
TTITLE0=Motor City All Stars - I Can't My Self
TTITLE1=The Supremes - Stop In The Name Of Love
TTITLE2=Sam and Dave - Soul Man
TTITLE3=Winnie Everet - Killing Me Softly With This Song
TTITLE4=Eddie Floyd - Knock On Wood
TTITLE5=Mary Wells - My Guy
TTITLE6=Righteous Brothers - Unchanned Melody
TTITLE7=The Contours - The Tracks Of My Tears
TTITLE8=Solomon Burke - If You Need Me
TTITLE9=Martha Reves - I Say A Little Prayer
TTITLE10=The Platters - Smoke Gets In Your Eyes
TTITLE11=Fontella Bass - Rescue Me
TTITLE12=The Drifters - Under The Boardwalk
TTITLE13=Ben E. King and The Drifters - Stand By Me
TTITLE14=The Marcels - Blue Moon
EXTD=
EXTT0=
EXTT1=
EXTT2=
EXTT3=
EXTT4=
EXTT5=
EXTT6=
EXTT7=
EXTT8=
EXTT9=
EXTT10=
EXTT11=
EXTT12=
EXTT13=
EXTT14=
PLAYORDER=
